<svg width="265" height="66" viewBox="0 0 265 66" fill="none" xmlns="http://www.w3.org/2000/svg">
<rect width="265" height="66" fill="#2C2C2C"/>
<path d="M32.0728 37.1675H39.5874C39.6021 39.5698 39.1333 41.6206 38.1812 43.3198C37.2437 45.0044 35.918 46.2788 34.2041 47.1431C32.4902 48.0073 30.4834 48.4395 28.1836 48.4395C26.3232 48.4395 24.6753 48.1172 23.2397 47.4727C21.8042 46.8281 20.5957 45.8906 19.6143 44.6602C18.6328 43.4297 17.8931 41.9429 17.395 40.1997C16.897 38.4419 16.6479 36.4497 16.6479 34.2231V29.7627C16.6479 27.5508 16.9116 25.5659 17.439 23.8081C17.981 22.0503 18.7427 20.5562 19.7241 19.3257C20.7202 18.0952 21.9214 17.1577 23.3276 16.5132C24.7485 15.8687 26.3306 15.5464 28.0737 15.5464C30.52 15.5464 32.5854 16.0078 34.27 16.9307C35.9692 17.8389 37.2729 19.1572 38.1812 20.8857C39.0894 22.5996 39.5728 24.6577 39.6313 27.0601H32.1167C32.1899 25.6685 32.1021 24.5771 31.853 23.7861C31.604 22.9805 31.1646 22.4165 30.5347 22.0942C29.9194 21.7573 29.0991 21.5889 28.0737 21.5889C27.3706 21.5889 26.7773 21.728 26.2939 22.0063C25.8105 22.2847 25.4224 22.7461 25.1294 23.3906C24.8364 24.0205 24.624 24.8555 24.4922 25.8955C24.3604 26.9355 24.2944 28.21 24.2944 29.7188V34.2231C24.2944 35.7612 24.3457 37.0503 24.4482 38.0903C24.5508 39.1304 24.7412 39.9727 25.0195 40.6172C25.3125 41.2471 25.708 41.7012 26.2061 41.9795C26.7188 42.2578 27.3779 42.397 28.1836 42.397C29.0332 42.397 29.7583 42.2578 30.3589 41.9795C30.9595 41.6865 31.4136 41.1665 31.7212 40.4194C32.0288 39.6577 32.146 38.5737 32.0728 37.1675ZM65.7243 29.6089V34.4429C65.7243 36.7427 65.4387 38.7642 64.8674 40.5073C64.2961 42.2505 63.4831 43.7153 62.4284 44.9019C61.3737 46.0737 60.1213 46.96 58.6711 47.5605C57.2355 48.1465 55.6389 48.4395 53.8811 48.4395C52.1086 48.4395 50.4973 48.1465 49.0471 47.5605C47.5969 46.96 46.3444 46.0737 45.2897 44.9019C44.2351 43.7153 43.4221 42.2505 42.8508 40.5073C42.2795 38.7642 41.9938 36.7427 41.9938 34.4429V29.6089C41.9938 27.3091 42.2795 25.2803 42.8508 23.5225C43.4221 21.7646 44.2277 20.2998 45.2678 19.1279C46.3225 17.9561 47.5749 17.0698 49.0251 16.4692C50.4753 15.8687 52.0866 15.5684 53.8591 15.5684C55.6169 15.5684 57.2209 15.8687 58.6711 16.4692C60.1359 17.0698 61.3884 17.9561 62.4284 19.1279C63.4685 20.2998 64.2741 21.7646 64.8454 23.5225C65.4313 25.2803 65.7243 27.3091 65.7243 29.6089ZM58.0998 34.4429V29.5649C58.0998 28.1294 58.0119 26.9062 57.8361 25.8955C57.6604 24.8848 57.3967 24.0645 57.0451 23.4346C56.6936 22.8047 56.2541 22.3433 55.7268 22.0503C55.1994 21.7573 54.5769 21.6108 53.8591 21.6108C53.112 21.6108 52.4748 21.7573 51.9475 22.0503C51.4201 22.3433 50.9807 22.8047 50.6291 23.4346C50.2922 24.0645 50.0432 24.8848 49.882 25.8955C49.7209 26.9062 49.6403 28.1294 49.6403 29.5649V34.4429C49.6403 35.8638 49.7209 37.0796 49.882 38.0903C50.0432 39.0864 50.2922 39.9067 50.6291 40.5513C50.9807 41.1958 51.4274 41.6719 51.9694 41.9795C52.5114 42.2725 53.1486 42.4189 53.8811 42.4189C54.5842 42.4189 55.1994 42.2725 55.7268 41.9795C56.2687 41.6719 56.7082 41.1958 57.0451 40.5513C57.3967 39.9067 57.6604 39.0864 57.8361 38.0903C58.0119 37.0796 58.0998 35.8638 58.0998 34.4429ZM92.2128 16.0078V48H84.7201L76.7001 28.0928V48H69.1854V16.0078H76.7001L84.7201 35.915V16.0078H92.2128ZM109.407 16.0078V48H101.87V16.0078H109.407ZM117.163 16.0078V21.9624H94.3336V16.0078H117.163ZM129.369 22.7314L123.415 48H115.329L125.195 16.0078H130.248L129.369 22.7314ZM134.028 48L128.073 22.7314L127.084 16.0078H132.226L142.114 48H134.028ZM134.269 36.0688V42.0234H120.405V36.0688H134.269ZM158.495 37.1675H166.009C166.024 39.5698 165.555 41.6206 164.603 43.3198C163.666 45.0044 162.34 46.2788 160.626 47.1431C158.912 48.0073 156.905 48.4395 154.605 48.4395C152.745 48.4395 151.097 48.1172 149.662 47.4727C148.226 46.8281 147.018 45.8906 146.036 44.6602C145.055 43.4297 144.315 41.9429 143.817 40.1997C143.319 38.4419 143.07 36.4497 143.07 34.2231V29.7627C143.07 27.5508 143.333 25.5659 143.861 23.8081C144.403 22.0503 145.165 20.5562 146.146 19.3257C147.142 18.0952 148.343 17.1577 149.75 16.5132C151.17 15.8687 152.752 15.5464 154.496 15.5464C156.942 15.5464 159.007 16.0078 160.692 16.9307C162.391 17.8389 163.695 19.1572 164.603 20.8857C165.511 22.5996 165.995 24.6577 166.053 27.0601H158.539C158.612 25.6685 158.524 24.5771 158.275 23.7861C158.026 22.9805 157.586 22.4165 156.957 22.0942C156.341 21.7573 155.521 21.5889 154.496 21.5889C153.792 21.5889 153.199 21.728 152.716 22.0063C152.232 22.2847 151.844 22.7461 151.551 23.3906C151.258 24.0205 151.046 24.8555 150.914 25.8955C150.782 26.9355 150.716 28.21 150.716 29.7188V34.2231C150.716 35.7612 150.768 37.0503 150.87 38.0903C150.973 39.1304 151.163 39.9727 151.441 40.6172C151.734 41.2471 152.13 41.7012 152.628 41.9795C153.141 42.2578 153.8 42.397 154.605 42.397C155.455 42.397 156.18 42.2578 156.781 41.9795C157.381 41.6865 157.835 41.1665 158.143 40.4194C158.451 39.6577 158.568 38.5737 158.495 37.1675ZM182.193 16.0078V48H174.656V16.0078H182.193ZM189.949 16.0078V21.9624H167.119V16.0078H189.949ZM215.46 16.0078H222.997V37.7827C222.997 40.2729 222.55 42.3091 221.656 43.8911C220.763 45.4585 219.51 46.6084 217.899 47.3408C216.288 48.0732 214.383 48.4395 212.186 48.4395C210.004 48.4395 208.099 48.0732 206.473 47.3408C204.847 46.6084 203.573 45.4585 202.65 43.8911C201.742 42.3091 201.288 40.2729 201.288 37.7827V16.0078H208.846V37.7827C208.846 39.1011 208.963 40.1045 209.198 40.793C209.447 41.4668 209.82 41.9209 210.318 42.1553C210.816 42.3896 211.439 42.5068 212.186 42.5068C212.948 42.5068 213.57 42.3896 214.054 42.1553C214.537 41.9209 214.889 41.4668 215.108 40.793C215.343 40.1045 215.46 39.1011 215.46 37.7827V16.0078ZM240.345 39.4966C240.345 38.9985 240.293 38.5518 240.191 38.1562C240.103 37.7461 239.92 37.3652 239.641 37.0137C239.378 36.6621 238.975 36.3105 238.433 35.959C237.891 35.5928 237.166 35.2119 236.258 34.8164C235.115 34.3477 233.994 33.8203 232.896 33.2344C231.797 32.6338 230.808 31.938 229.929 31.147C229.065 30.3413 228.369 29.4038 227.842 28.3345C227.315 27.2505 227.051 25.9907 227.051 24.5552C227.051 23.1782 227.315 21.9404 227.842 20.8418C228.384 19.7285 229.124 18.7837 230.061 18.0073C231.013 17.2163 232.134 16.6157 233.423 16.2056C234.712 15.7808 236.118 15.5684 237.642 15.5684C239.663 15.5684 241.443 15.9785 242.981 16.7988C244.534 17.6045 245.742 18.7544 246.607 20.2485C247.486 21.728 247.925 23.4785 247.925 25.5H240.432C240.432 24.6943 240.33 23.9839 240.125 23.3687C239.92 22.7534 239.597 22.27 239.158 21.9185C238.733 21.5669 238.169 21.3911 237.466 21.3911C236.836 21.3911 236.302 21.5376 235.862 21.8306C235.437 22.1235 235.115 22.519 234.895 23.0171C234.676 23.5005 234.566 24.0352 234.566 24.6211C234.566 25.1045 234.676 25.5439 234.895 25.9395C235.115 26.3203 235.415 26.6792 235.796 27.0161C236.192 27.353 236.646 27.6753 237.158 27.9829C237.686 28.2905 238.25 28.5908 238.85 28.8838C240.301 29.4258 241.582 30.0337 242.696 30.7075C243.824 31.3667 244.768 32.1211 245.53 32.9707C246.292 33.8057 246.863 34.7578 247.244 35.8271C247.639 36.8965 247.837 38.105 247.837 39.4526C247.837 40.8882 247.603 42.1626 247.134 43.2759C246.68 44.3892 246.013 45.334 245.135 46.1104C244.256 46.8721 243.194 47.4507 241.949 47.8462C240.718 48.2417 239.326 48.4395 237.774 48.4395C236.353 48.4395 234.954 48.2344 233.577 47.8242C232.215 47.3994 230.977 46.7549 229.864 45.8906C228.765 45.0117 227.886 43.8911 227.227 42.5288C226.568 41.1519 226.238 39.5186 226.238 37.6289H233.797C233.797 38.5664 233.87 39.3574 234.016 40.002C234.163 40.6465 234.39 41.1665 234.698 41.562C235.02 41.9429 235.43 42.2212 235.928 42.397C236.426 42.5581 237.041 42.6387 237.774 42.6387C238.448 42.6387 238.968 42.4995 239.334 42.2212C239.715 41.9282 239.978 41.5474 240.125 41.0786C240.271 40.5952 240.345 40.0679 240.345 39.4966Z" fill="#FBEAD6"/>
</svg>
