<svg width="17" height="16" viewBox="0 0 17 16" fill="none" xmlns="http://www.w3.org/2000/svg">
<path d="M12.9339 3.69697C12.8324 3.64452 12.7336 3.58701 12.6379 3.52467C12.3594 3.34061 12.1042 3.12374 11.8776 2.87871C11.3105 2.22994 11.0988 1.57176 11.0208 1.11094H11.0239C10.9587 0.728439 10.9857 0.480957 10.9898 0.480957H8.40717V10.4673C8.40717 10.6014 8.40717 10.7339 8.40153 10.8649C8.40153 10.8812 8.39996 10.8962 8.39902 10.9137C8.39902 10.9209 8.39902 10.9285 8.39746 10.936C8.39746 10.9379 8.39746 10.9397 8.39746 10.9416C8.37023 11.2999 8.25537 11.6461 8.06298 11.9496C7.87059 12.2531 7.60656 12.5046 7.29412 12.6821C6.96849 12.8674 6.6002 12.9646 6.22556 12.9641C5.0223 12.9641 4.04709 11.9829 4.04709 10.7712C4.04709 9.55948 5.0223 8.57832 6.22556 8.57832C6.45334 8.57811 6.67971 8.61395 6.89627 8.68452L6.8994 6.05494C6.24197 5.97002 5.57407 6.02227 4.93783 6.20839C4.3016 6.39452 3.71085 6.71048 3.20284 7.13635C2.7577 7.52311 2.38348 7.98458 2.097 8.5C1.98798 8.68797 1.57666 9.44326 1.52685 10.6691C1.49552 11.3648 1.70447 12.0857 1.80409 12.3836V12.3899C1.86675 12.5653 2.10953 13.1639 2.50519 13.6686C2.82423 14.0734 3.20117 14.4291 3.62387 14.724V14.7178L3.63013 14.724C4.88039 15.5736 6.2666 15.5178 6.2666 15.5178C6.50657 15.5081 7.31041 15.5178 8.22328 15.0852C9.23576 14.6056 9.81218 13.891 9.81218 13.891C10.1804 13.4641 10.4732 12.9775 10.678 12.4522C10.9117 11.8379 10.9898 11.1011 10.9898 10.8066V5.5086C11.0211 5.5274 11.4384 5.80339 11.4384 5.80339C11.4384 5.80339 12.0395 6.18871 12.9774 6.43964C13.6503 6.6182 14.5569 6.65579 14.5569 6.65579V4.092C14.2393 4.12646 13.5943 4.02622 12.9339 3.69697Z" fill="#2C2C2C"/>
</svg>
