<svg width="1280" height="301" viewBox="0 0 1280 301" fill="none" xmlns="http://www.w3.org/2000/svg">
<path d="M263.097 136.076V129.882C270.009 129.574 275.401 128.256 279.272 125.928C283.143 123.555 285.856 119.667 287.411 114.264C289.001 108.86 289.796 101.457 289.796 92.0554C289.796 85.114 289.312 79.3368 288.345 74.7238C287.411 70.0669 285.839 66.4205 283.627 63.7845C282.175 62.1151 280.464 60.7971 278.494 59.8305C276.524 58.864 274.26 58.183 271.703 57.7876C269.145 57.3923 266.276 57.1946 263.097 57.1946V51H347.084C360.045 51 371.156 51.3954 380.419 52.1862C389.682 52.977 397.268 54.4268 403.179 56.5356C409.089 58.6443 413.444 61.6318 416.243 65.4979C419.043 69.364 420.443 74.3724 420.443 80.523C420.443 86.3661 419.319 91.1108 417.073 94.7573C414.826 98.3598 411.871 101.128 408.207 103.061C405.581 104.423 402.781 105.455 399.809 106.158C396.767 106.949 393.501 107.498 390.01 107.805C386.519 108.069 382.908 108.201 379.175 108.201C373.438 108.201 367.596 107.959 361.652 107.476C355.707 106.993 349.97 106.663 344.44 106.487C345.165 112.111 346.6 116.592 348.743 119.931C350.92 123.226 354.117 125.642 358.334 127.18C362.55 128.674 368.115 129.574 375.027 129.882V136.076H263.097ZM343.817 98.3158C346.893 98.0523 349.71 97.5251 352.268 96.7343C354.86 95.8995 357.089 94.6914 358.956 93.1098C360.788 91.5721 362.205 89.6171 363.207 87.2447C364.244 84.8724 364.762 81.9728 364.762 78.546C364.762 74.7678 364.278 71.6705 363.311 69.2542C362.378 66.7939 360.995 64.8169 359.163 63.3232C357.366 61.8734 355.154 60.841 352.527 60.2259C349.9 59.5669 346.963 59.1496 343.714 58.9738V95.2845L343.817 98.3158Z" fill="#2C2C2C"/>
<path d="M400.184 136.076V129.882C401.186 129.882 402.552 129.508 404.28 128.761C406.008 127.971 407.909 126.762 409.983 125.137C412.056 123.467 414.216 121.359 416.463 118.811C418.71 116.219 420.87 113.055 422.943 109.321L455.19 51H507.501L535.756 107.871C537.726 111.825 539.869 115.208 542.184 118.02C544.5 120.788 546.798 123.05 549.079 124.807C551.326 126.565 553.434 127.861 555.404 128.696C557.409 129.486 559.085 129.882 560.433 129.882V136.076H460.841V129.882C462.95 129.882 464.954 129.398 466.855 128.432C468.791 127.465 470.363 126.016 471.573 124.083C472.783 122.15 473.388 119.755 473.388 116.9C473.388 115.933 473.215 114.725 472.869 113.275H431.55C431.238 114.329 431.083 115.34 431.083 116.306C431.083 119.25 431.688 121.732 432.897 123.753C434.142 125.774 435.714 127.312 437.615 128.366C439.551 129.376 441.573 129.882 443.681 129.882V136.076H400.184ZM435.334 104.115H469.758C469.033 102.358 468.186 100.337 467.218 98.0522C466.25 95.7238 465.11 93.0878 463.796 90.1443C462.483 87.2008 460.997 83.9058 459.338 80.2594C457.713 76.6129 455.864 72.5491 453.791 68.068C451.44 72.5931 449.297 76.7008 447.362 80.3912C445.426 84.0816 443.698 87.4205 442.178 90.4079C440.691 93.3514 439.378 95.9435 438.237 98.1841C437.097 100.425 436.129 102.402 435.334 104.115Z" fill="#2C2C2C"/>
<path d="M553.55 136.076V129.882C560.463 129.574 565.855 128.256 569.726 125.928C573.597 123.555 576.31 119.667 577.865 114.264C579.455 108.86 580.25 101.457 580.25 92.0554C580.25 85.114 579.766 79.3368 578.798 74.7238C577.865 70.0669 576.293 66.4205 574.081 63.7845C572.629 62.1151 570.918 60.7971 568.948 59.8305C566.978 58.864 564.714 58.183 562.157 57.7876C559.599 57.3923 556.73 57.1946 553.55 57.1946V51H637.537C650.498 51 661.61 51.3954 670.873 52.1862C680.136 52.977 687.722 54.4268 693.632 56.5356C699.543 58.6443 703.898 61.6318 706.697 65.4979C709.497 69.364 710.896 74.3724 710.896 80.523C710.896 86.3661 709.773 91.1108 707.526 94.7573C705.28 98.3598 702.325 101.128 698.661 103.061C696.034 104.423 693.235 105.455 690.263 106.158C687.221 106.949 683.955 107.498 680.464 107.805C676.973 108.069 673.362 108.201 669.629 108.201C663.891 108.201 658.05 107.959 652.106 107.476C646.161 106.993 640.423 106.663 634.893 106.487C635.619 112.111 637.054 116.592 639.196 119.931C641.374 123.226 644.571 125.642 648.788 127.18C653.004 128.674 658.569 129.574 665.481 129.882V136.076H553.55ZM634.271 98.3158C637.347 98.0523 640.164 97.5251 642.722 96.7343C645.314 95.8995 647.543 94.6914 649.41 93.1098C651.241 91.5721 652.659 89.6171 653.661 87.2447C654.698 84.8724 655.216 81.9728 655.216 78.546C655.216 74.7678 654.732 71.6705 653.765 69.2542C652.831 66.7939 651.449 64.8169 649.617 63.3232C647.82 61.8734 645.608 60.841 642.981 60.2259C640.354 59.5669 637.416 59.1496 634.168 58.9738V95.2845L634.271 98.3158Z" fill="#2C2C2C"/>
<path d="M702.769 136.076V129.882C709.682 129.574 715.074 128.256 718.945 125.928C722.816 123.555 725.529 119.667 727.084 114.264C728.674 108.86 729.469 101.457 729.469 92.0554C729.469 85.114 728.985 79.3368 728.017 74.7238C727.084 70.0669 725.511 66.4205 723.299 63.7845C721.848 62.1151 720.137 60.7971 718.167 59.8305C716.197 58.864 713.933 58.183 711.375 57.7876C708.818 57.3923 705.949 57.1946 702.769 57.1946V51H847.569C848.468 56.5356 849.124 62.5544 849.539 69.0565C849.988 75.5586 850.213 81.4456 850.213 86.7175H844.769C842.454 82.3242 839.067 78.3263 834.608 74.7238C830.15 71.1213 825.086 68.046 819.418 65.4979C813.75 62.9058 807.822 60.9289 801.635 59.5669C795.449 58.205 789.366 57.5241 783.386 57.5241V90.8692C785.322 90.1663 787.914 88.9801 791.163 87.3106C794.412 85.6412 797.955 83.6862 801.791 81.4456C805.593 79.205 808.824 77.228 811.486 75.5146C814.147 73.8012 815.892 72.5711 816.722 71.8242C817.31 75.1192 817.69 78.9634 817.863 83.3567C818.035 87.706 818.122 91.5282 818.122 94.8232C818.122 97.9864 818.001 101.633 817.759 105.762C817.552 109.848 817.206 113.253 816.722 115.977C815.823 115.274 813.992 114.044 811.227 112.287C808.462 110.485 805.247 108.508 801.584 106.356C798.093 104.335 794.688 102.446 791.37 100.688C788.087 98.9309 785.426 97.7008 783.386 96.9979V129.552C789.193 129.552 795.587 128.805 802.569 127.312C809.55 125.774 816.428 123.665 823.202 120.985C827.523 119.228 831.549 117.273 835.282 115.12C839.015 112.924 842.212 110.573 844.873 108.069C847.534 105.565 849.401 102.995 850.472 100.359H855.916C855.916 105.631 855.691 111.518 855.242 118.02C854.827 124.522 854.17 130.541 853.272 136.076H702.769Z" fill="#2C2C2C"/>
<path d="M984.345 139.833C979.334 139.833 975.065 139.701 971.54 139.437C964.524 138.998 959.581 137.724 956.713 135.615C955.227 134.648 954.069 133.33 953.239 131.661C952.375 130.079 951.736 128.19 951.321 125.994C950.941 123.753 950.63 121.161 950.388 118.218C950.077 114.659 949.61 111.671 948.988 109.255C948.366 106.795 947.398 104.774 946.085 103.192C943.562 100.249 938.809 98.5135 931.828 97.9864C931.931 103.917 932.225 108.926 932.709 113.011C933.193 117.053 933.919 120.326 934.886 122.83C935.889 125.335 937.15 127.136 938.671 128.234C940.226 129.333 942.145 129.882 944.426 129.882V136.076H851.159V129.882C858.071 129.574 863.463 128.256 867.334 125.928C871.205 123.555 873.918 119.667 875.473 114.264C877.063 108.86 877.858 101.457 877.858 92.0554C877.858 85.114 877.374 79.3368 876.407 74.7238C875.473 70.0669 873.901 66.4205 871.689 63.7845C870.237 62.1151 868.526 60.7971 866.556 59.8305C864.586 58.864 862.322 58.183 859.765 57.7876C857.207 57.3923 854.338 57.1946 851.159 57.1946V51H935.146C939.639 51 943.89 51.022 947.899 51.0659C951.908 51.1098 955.693 51.1757 959.253 51.2636C966.338 51.4393 972.56 51.7908 977.917 52.318C983.274 52.8013 987.836 53.5042 991.604 54.4268C997.168 55.7887 1001.21 57.8535 1003.73 60.6213C1006.29 63.3452 1007.57 67.0575 1007.57 71.7583C1007.57 76.3713 1006.09 80.1935 1003.11 83.2249C1000.14 86.2123 996.114 88.5627 991.033 90.2761C987.646 91.4184 983.827 92.3629 979.576 93.1098C975.394 93.8127 970.901 94.3179 966.096 94.6255C961.327 94.933 956.35 95.1087 951.165 95.1527H973.199C977.865 95.1527 981.874 95.3504 985.227 95.7458C991.794 96.5805 996.719 98.3817 1000 101.15C1001.63 102.511 1002.97 104.159 1004.05 106.092C1005.12 107.981 1006 110.178 1006.69 112.682C1007.38 115.142 1008.02 117.888 1008.61 120.919C1009.3 124.434 1010.34 126.806 1011.72 128.037C1013.1 129.223 1015.64 129.816 1019.34 129.816V136.472C1015.43 137.043 1011.84 137.526 1008.56 137.921C1005.27 138.361 1002.2 138.712 999.328 138.976C996.494 139.283 993.833 139.503 991.344 139.635C988.89 139.767 986.557 139.833 984.345 139.833ZM931.776 90.7374C936.234 90.4738 940.226 89.8587 943.752 88.8922C947.277 87.8818 950.059 86.2562 952.099 84.0157C954.138 81.7751 955.157 78.6558 955.157 74.6579C955.157 71.5387 954.587 68.9906 953.447 67.0136C952.341 65.0366 950.768 63.455 948.729 62.2688C946.655 61.1266 944.184 60.3138 941.315 59.8305C938.446 59.3473 935.267 59.0397 931.776 58.9079V90.7374Z" fill="#2C2C2C"/>
<path d="M50 257.244V251.049C56.9125 250.742 62.3043 249.424 66.1753 247.095C70.0463 244.723 72.7594 240.835 74.3147 235.431C75.9046 230.027 76.6996 222.625 76.6996 213.223C76.6996 206.281 76.2157 200.504 75.2479 195.891C74.3147 191.234 72.7421 187.588 70.5301 184.952C69.0785 183.283 67.3677 181.965 65.3976 180.998C63.4275 180.031 61.1637 179.35 58.6061 178.955C56.0484 178.56 53.1798 178.362 50 178.362V172.167H157.265V178.362C152.53 178.362 148.469 178.845 145.082 179.812C141.694 180.734 138.929 182.448 136.787 184.952C134.678 187.456 133.123 190.993 132.121 195.562C131.118 200.087 130.617 205.974 130.617 213.223V250.72C137.322 250.72 143.734 249.446 149.851 246.898C155.969 244.305 161.395 240.945 166.13 236.815C170.865 232.729 174.632 228.16 177.432 223.108C180.266 218.055 181.839 213.135 182.15 208.346H187.593C187.593 210.763 187.542 214.123 187.438 218.429C187.334 222.69 187.179 227.347 186.971 232.4C186.729 237.54 186.436 242.263 186.09 246.568C185.779 250.873 185.399 254.432 184.949 257.244H50Z" fill="#2C2C2C"/>
<path d="M179.726 257.244V251.049C180.728 251.049 182.093 250.676 183.821 249.929C185.549 249.138 187.45 247.93 189.524 246.304C191.598 244.635 193.758 242.526 196.005 239.978C198.251 237.386 200.411 234.223 202.485 230.489L234.732 172.167H287.042L315.297 229.039C317.267 232.993 319.41 236.376 321.726 239.187C324.041 241.955 326.34 244.218 328.621 245.975C330.868 247.732 332.976 249.028 334.946 249.863C336.951 250.654 338.627 251.049 339.975 251.049V257.244H240.383V251.049C242.491 251.049 244.496 250.566 246.397 249.599C248.332 248.633 249.905 247.183 251.115 245.25C252.324 243.317 252.929 240.923 252.929 238.067C252.929 237.1 252.756 235.892 252.411 234.442H211.091C210.78 235.497 210.625 236.507 210.625 237.474C210.625 240.417 211.229 242.9 212.439 244.921C213.683 246.941 215.256 248.479 217.157 249.533C219.092 250.544 221.114 251.049 223.223 251.049V257.244H179.726ZM214.876 225.282H249.3C248.574 223.525 247.727 221.504 246.76 219.22C245.792 216.891 244.651 214.255 243.338 211.312C242.025 208.368 240.538 205.073 238.879 201.427C237.255 197.78 235.406 193.717 233.332 189.235C230.982 193.761 228.839 197.868 226.903 201.559C224.968 205.249 223.24 208.588 221.719 211.575C220.233 214.519 218.92 217.111 217.779 219.352C216.638 221.592 215.671 223.569 214.876 225.282Z" fill="#2C2C2C"/>
<path d="M332.47 257.244V251.049C339.382 250.742 344.774 249.424 348.645 247.095C352.516 244.723 355.229 240.835 356.785 235.431C358.375 230.027 359.169 222.625 359.169 213.223C359.169 206.281 358.686 200.504 357.718 195.891C356.785 191.234 355.212 187.588 353 184.952C351.548 183.283 349.838 181.965 347.867 180.998C345.897 180.031 343.634 179.35 341.076 178.955C338.518 178.56 335.65 178.362 332.47 178.362V172.167H422.989L468.664 219.352L468.767 213.223C468.767 205.974 468.266 200.087 467.264 195.562C466.261 190.993 464.689 187.456 462.546 184.952C460.438 182.448 457.69 180.734 454.303 179.812C450.916 178.845 446.855 178.362 442.12 178.362V172.167H499.148V178.362C496.002 178.362 493.203 178.56 490.749 178.955C485.876 179.746 482.298 181.745 480.017 184.952C478.773 186.709 477.805 188.84 477.114 191.344C476.388 193.892 475.87 196.99 475.559 200.636C475.248 204.239 475.092 208.434 475.092 213.223V257.244H421.9L402.926 236.485L366.635 196.946C365.84 201.163 365.443 206.589 365.443 213.223C365.443 222.712 366.237 230.159 367.827 235.563C369.417 240.967 372.148 244.833 376.019 247.161C379.924 249.446 385.281 250.742 392.09 251.049V257.244H332.47Z" fill="#2C2C2C"/>
<path d="M508.855 257.244V251.049C515.767 250.742 521.159 249.424 525.03 247.095C528.901 244.723 531.614 240.835 533.17 235.431C534.759 230.027 535.554 222.625 535.554 213.223V180.207C530.128 181.481 524.961 183.766 520.053 187.061C515.145 190.312 510.894 194.441 507.3 199.45C503.705 204.414 501.13 210.082 499.575 216.452H494.131C494.131 214.167 494.183 211.026 494.287 207.028C494.39 203.03 494.563 198.879 494.805 194.573C495.047 190.312 495.324 186.226 495.635 182.316C495.946 178.362 496.326 174.979 496.775 172.167H628.251C628.735 174.979 629.133 178.362 629.444 182.316C629.755 186.226 630.031 190.312 630.273 194.573C630.515 198.879 630.671 203.03 630.74 207.028C630.843 211.026 630.895 214.167 630.895 216.452H625.452C623.793 210.521 621.079 205.073 617.312 200.109C613.579 195.1 609.276 190.861 604.403 187.39C599.53 183.876 594.553 181.481 589.472 180.207V215.332C589.576 224.294 590.44 231.323 592.064 236.419C593.689 241.516 596.419 245.162 600.255 247.359C604.127 249.512 609.397 250.742 616.068 251.049V257.244H508.855Z" fill="#2C2C2C"/>
<path d="M627.071 257.244V251.049C633.984 250.742 639.375 249.424 643.246 247.095C647.117 244.723 649.831 240.835 651.386 235.431C652.976 230.027 653.771 222.625 653.771 213.223C653.771 206.281 653.287 200.504 652.319 195.891C651.386 191.234 649.813 187.588 647.601 184.952C646.15 183.283 644.439 181.965 642.469 180.998C640.499 180.031 638.235 179.35 635.677 178.955C633.12 178.56 630.251 178.362 627.071 178.362V172.167H771.871C772.77 177.703 773.426 183.722 773.841 190.224C774.29 196.726 774.515 202.613 774.515 207.885H769.071C766.756 203.492 763.369 199.494 758.91 195.891C754.451 192.289 749.388 189.213 743.72 186.665C738.051 184.073 732.124 182.096 725.937 180.734C719.751 179.372 713.668 178.691 707.688 178.691V212.037C709.624 211.334 712.216 210.148 715.465 208.478C718.714 206.809 722.256 204.854 726.093 202.613C729.895 200.372 733.126 198.395 735.788 196.682C738.449 194.969 740.194 193.739 741.024 192.992C741.611 196.287 741.992 200.131 742.164 204.524C742.337 208.873 742.424 212.696 742.424 215.991C742.424 219.154 742.303 222.8 742.061 226.93C741.853 231.016 741.508 234.421 741.024 237.144C740.125 236.441 738.293 235.211 735.528 233.454C732.763 231.653 729.549 229.676 725.885 227.523C722.395 225.502 718.99 223.613 715.672 221.856C712.389 220.098 709.727 218.868 707.688 218.165V250.72C713.495 250.72 719.889 249.973 726.87 248.479C733.852 246.941 740.73 244.833 747.504 242.153C751.825 240.395 755.851 238.44 759.584 236.288C763.317 234.091 766.514 231.741 769.175 229.236C771.836 226.732 773.703 224.162 774.774 221.526H780.218C780.218 226.798 779.993 232.685 779.544 239.187C779.129 245.689 778.472 251.708 777.574 257.244H627.071Z" fill="#2C2C2C"/>
<path d="M908.647 261C903.636 261 899.367 260.868 895.842 260.605C888.826 260.165 883.883 258.891 881.014 256.782C879.528 255.816 878.37 254.498 877.541 252.828C876.677 251.247 876.037 249.358 875.623 247.161C875.242 244.921 874.931 242.328 874.69 239.385C874.378 235.826 873.912 232.839 873.29 230.423C872.668 227.962 871.7 225.941 870.386 224.36C867.863 221.416 863.111 219.681 856.129 219.154C856.233 225.085 856.527 230.093 857.011 234.179C857.495 238.221 858.22 241.494 859.188 243.998C860.191 246.502 861.452 248.303 862.973 249.402C864.528 250.5 866.446 251.049 868.727 251.049V257.244H775.461V251.049C782.373 250.742 787.765 249.424 791.636 247.095C795.507 244.723 798.22 240.835 799.775 235.431C801.365 230.027 802.16 222.625 802.16 213.223C802.16 206.281 801.676 200.504 800.708 195.891C799.775 191.234 798.203 187.588 795.991 184.952C794.539 183.283 792.828 181.965 790.858 180.998C788.888 180.031 786.624 179.35 784.067 178.955C781.509 178.56 778.64 178.362 775.461 178.362V172.167H859.447C863.941 172.167 868.192 172.189 872.201 172.233C876.21 172.277 879.995 172.343 883.555 172.431C890.64 172.607 896.861 172.958 902.219 173.485C907.576 173.969 912.138 174.672 915.905 175.594C921.47 176.956 925.514 179.021 928.037 181.789C930.594 184.513 931.873 188.225 931.873 192.926C931.873 197.539 930.387 201.361 927.415 204.392C924.442 207.38 920.416 209.73 915.335 211.444C911.948 212.586 908.129 213.53 903.878 214.277C899.695 214.98 895.202 215.485 890.398 215.793C885.629 216.1 880.652 216.276 875.467 216.32H897.501C902.167 216.32 906.176 216.518 909.529 216.913C916.095 217.748 921.021 219.549 924.304 222.317C925.929 223.679 927.276 225.326 928.348 227.259C929.419 229.149 930.301 231.345 930.992 233.849C931.683 236.31 932.323 239.055 932.91 242.087C933.601 245.601 934.638 247.974 936.021 249.204C937.403 250.39 939.944 250.983 943.642 250.983V257.639C939.736 258.21 936.142 258.694 932.858 259.089C929.575 259.528 926.499 259.88 923.63 260.143C920.796 260.451 918.135 260.671 915.646 260.802C913.192 260.934 910.859 261 908.647 261ZM856.078 211.905C860.536 211.641 864.528 211.026 868.054 210.06C871.579 209.049 874.361 207.424 876.4 205.183C878.44 202.943 879.459 199.823 879.459 195.825C879.459 192.706 878.889 190.158 877.748 188.181C876.642 186.204 875.07 184.622 873.031 183.436C870.957 182.294 868.486 181.481 865.617 180.998C862.748 180.515 859.568 180.207 856.078 180.075V211.905Z" fill="#2C2C2C"/>
<path d="M937.744 257.244V251.049C944.657 250.742 950.048 249.424 953.919 247.095C957.79 244.723 960.503 240.835 962.059 235.431C963.649 230.027 964.444 222.625 964.444 213.223C964.444 206.281 963.96 200.504 962.992 195.891C962.059 191.234 960.486 187.588 958.274 184.952C956.823 183.283 955.112 181.965 953.142 180.998C951.172 180.031 948.908 179.35 946.35 178.955C943.793 178.56 940.924 178.362 937.744 178.362V172.167H1028.26L1073.94 219.352L1074.04 213.223C1074.04 205.974 1073.54 200.087 1072.54 195.562C1071.54 190.993 1069.96 187.456 1067.82 184.952C1065.71 182.448 1062.96 180.734 1059.58 179.812C1056.19 178.845 1052.13 178.362 1047.39 178.362V172.167H1104.42V178.362C1101.28 178.362 1098.48 178.56 1096.02 178.955C1091.15 179.746 1087.57 181.745 1085.29 184.952C1084.05 186.709 1083.08 188.84 1082.39 191.344C1081.66 193.892 1081.14 196.99 1080.83 200.636C1080.52 204.239 1080.37 208.434 1080.37 213.223V257.244H1027.17L1008.2 236.485L971.909 196.946C971.114 201.163 970.717 206.589 970.717 213.223C970.717 222.712 971.512 230.159 973.102 235.563C974.691 240.967 977.422 244.833 981.293 247.161C985.198 249.446 990.556 250.742 997.364 251.049V257.244H937.744Z" fill="#2C2C2C"/>
<path d="M1103.76 261C1103.21 259.594 1102.69 257.463 1102.2 254.608C1101.72 251.708 1101.29 248.611 1100.91 245.316C1100.49 242.065 1100.18 238.99 1099.98 236.09C1099.8 233.146 1099.72 230.906 1099.72 229.368H1105C1106.7 233.718 1109.17 237.386 1112.42 240.373C1115.7 243.361 1119.45 245.755 1123.67 247.556C1127.82 249.314 1132.21 250.588 1136.84 251.379C1141.5 252.126 1146.19 252.499 1150.89 252.499C1157.56 252.499 1162.76 252.038 1166.49 251.115C1170.26 250.149 1172.92 248.874 1174.48 247.293C1176.03 245.667 1176.81 243.888 1176.81 241.955C1176.81 239.802 1176.08 238.067 1174.63 236.749C1173.18 235.387 1171.21 234.311 1168.72 233.52C1166.2 232.729 1163.26 232.114 1159.91 231.675C1156.59 231.235 1153.06 230.84 1149.33 230.489C1145.56 230.137 1141.71 229.764 1137.77 229.368C1133.83 228.929 1129.99 228.292 1126.26 227.457C1122.49 226.666 1118.93 225.612 1115.58 224.294C1112.26 222.932 1109.36 221.175 1106.87 219.022C1104.35 216.869 1102.36 214.233 1100.91 211.114C1099.46 207.951 1098.73 204.151 1098.73 199.713C1098.73 193.739 1100.39 188.708 1103.71 184.622C1107.03 180.537 1111.45 177.33 1116.98 175.001C1122.75 172.541 1129.16 170.849 1136.21 169.927C1143.3 168.96 1150.64 168.477 1158.25 168.477C1162.33 168.477 1166.32 168.631 1170.22 168.938C1174.13 169.246 1177.91 169.575 1181.58 169.927C1185.21 170.278 1188.68 170.608 1192 170.915C1195.35 171.223 1198.51 171.377 1201.49 171.377C1204.08 171.377 1206.24 171.289 1207.97 171.113C1209.73 170.937 1211.44 170.652 1213.1 170.256C1214.79 169.817 1216.8 169.224 1219.11 168.477C1219.67 169.883 1220.18 171.882 1220.67 174.474C1221.15 177.066 1221.57 179.812 1221.91 182.711C1222.29 185.611 1222.57 188.379 1222.74 191.015C1222.95 193.607 1223.05 195.672 1223.05 197.209H1217.19C1216.47 194.617 1214.72 192.069 1211.96 189.565C1209.19 187.017 1205.7 184.732 1201.49 182.711C1197.3 180.69 1192.5 179.065 1187.07 177.835C1181.68 176.561 1175.94 175.924 1169.86 175.924C1167.58 175.924 1165.56 176.187 1163.8 176.715C1162.07 177.198 1160.6 177.879 1159.39 178.757C1156.93 180.471 1155.71 182.624 1155.71 185.216C1155.71 187.808 1156.4 189.916 1157.78 191.542C1159.16 193.167 1161.05 194.485 1163.43 195.496C1165.82 196.462 1168.6 197.231 1171.78 197.802C1174.96 198.33 1178.33 198.791 1181.89 199.186C1185.48 199.582 1189.15 199.999 1192.88 200.438C1196.65 200.878 1200.31 201.493 1203.87 202.284C1208.71 203.382 1213.1 205.007 1217.04 207.16C1220.98 209.313 1224.12 212.322 1226.47 216.188C1228.82 220.054 1230 225.107 1230 231.345C1230 237.715 1228.25 242.9 1224.76 246.898C1221.27 250.851 1216.69 253.839 1211.03 255.86C1205.01 258.013 1198.5 259.396 1191.48 260.011C1184.5 260.67 1177.24 261 1169.71 261C1163.86 261 1158.39 260.758 1153.27 260.275C1148.19 259.792 1143.08 259.309 1137.93 258.825C1132.81 258.342 1127.25 258.1 1121.23 258.1C1118.78 258.1 1116.67 258.166 1114.91 258.298C1113.18 258.474 1111.47 258.759 1109.77 259.155C1108.08 259.594 1106.08 260.209 1103.76 261Z" fill="#2C2C2C"/>
</svg>
