<svg width="298" height="66" viewBox="0 0 298 66" fill="none" xmlns="http://www.w3.org/2000/svg">
<rect width="298" height="66" fill="#2C2C2C"/>
<path d="M32.0728 37.1675H39.5874C39.6021 39.5698 39.1333 41.6206 38.1812 43.3198C37.2437 45.0044 35.918 46.2788 34.2041 47.1431C32.4902 48.0073 30.4834 48.4395 28.1836 48.4395C26.3232 48.4395 24.6753 48.1172 23.2397 47.4727C21.8042 46.8281 20.5957 45.8906 19.6143 44.6602C18.6328 43.4297 17.8931 41.9429 17.395 40.1997C16.897 38.4419 16.6479 36.4497 16.6479 34.2231V29.7627C16.6479 27.5508 16.9116 25.5659 17.439 23.8081C17.981 22.0503 18.7427 20.5562 19.7241 19.3257C20.7202 18.0952 21.9214 17.1577 23.3276 16.5132C24.7485 15.8687 26.3306 15.5464 28.0737 15.5464C30.52 15.5464 32.5854 16.0078 34.27 16.9307C35.9692 17.8389 37.2729 19.1572 38.1812 20.8857C39.0894 22.5996 39.5728 24.6577 39.6313 27.0601H32.1167C32.1899 25.6685 32.1021 24.5771 31.853 23.7861C31.604 22.9805 31.1646 22.4165 30.5347 22.0942C29.9194 21.7573 29.0991 21.5889 28.0737 21.5889C27.3706 21.5889 26.7773 21.728 26.2939 22.0063C25.8105 22.2847 25.4224 22.7461 25.1294 23.3906C24.8364 24.0205 24.624 24.8555 24.4922 25.8955C24.3604 26.9355 24.2944 28.21 24.2944 29.7188V34.2231C24.2944 35.7612 24.3457 37.0503 24.4482 38.0903C24.5508 39.1304 24.7412 39.9727 25.0195 40.6172C25.3125 41.2471 25.708 41.7012 26.2061 41.9795C26.7188 42.2578 27.3779 42.397 28.1836 42.397C29.0332 42.397 29.7583 42.2578 30.3589 41.9795C30.9595 41.6865 31.4136 41.1665 31.7212 40.4194C32.0288 39.6577 32.146 38.5737 32.0728 37.1675ZM42.4992 16.0078H53.4416C55.5803 16.0078 57.4333 16.374 59.0007 17.1064C60.5681 17.8389 61.7692 18.9229 62.6042 20.3584C63.4538 21.7939 63.8786 23.5664 63.8786 25.6758C63.8786 27.5068 63.6442 29.0376 63.1755 30.2681C62.7214 31.4985 62.0769 32.5166 61.2419 33.3223C60.4069 34.1133 59.4255 34.7651 58.2976 35.2778L55.8586 36.7061H47.2673L47.2233 30.7515H53.2658C53.9543 30.7515 54.5256 30.5757 54.9797 30.2241C55.4338 29.8726 55.7707 29.3745 55.9904 28.73C56.2248 28.0708 56.342 27.2871 56.342 26.3789C56.342 25.4561 56.2321 24.665 56.0124 24.0059C55.7927 23.3467 55.4704 22.8413 55.0456 22.4897C54.6354 22.1382 54.1008 21.9624 53.4416 21.9624H50.0139V48H42.4992V16.0078ZM56.6716 48L51.0026 33.8496L58.9567 33.8057L64.7355 47.6704V48H56.6716ZM86.456 42.0674V48H72.4594V42.0674H86.456ZM75.0741 16.0078V48H67.5595V16.0078H75.0741ZM84.6322 28.708V34.4429H72.4594V28.708H84.6322ZM86.5219 16.0078V21.9624H72.4594V16.0078H86.5219ZM102.507 39.4966C102.507 38.9985 102.456 38.5518 102.354 38.1562C102.266 37.7461 102.083 37.3652 101.804 37.0137C101.541 36.6621 101.138 36.3105 100.596 35.959C100.054 35.5928 99.3287 35.2119 98.4205 34.8164C97.2779 34.3477 96.1573 33.8203 95.0587 33.2344C93.9601 32.6338 92.9713 31.938 92.0924 31.147C91.2281 30.3413 90.5323 29.4038 90.005 28.3345C89.4776 27.2505 89.214 25.9907 89.214 24.5552C89.214 23.1782 89.4776 21.9404 90.005 20.8418C90.547 19.7285 91.2867 18.7837 92.2242 18.0073C93.1764 17.2163 94.297 16.6157 95.586 16.2056C96.8751 15.7808 98.2813 15.5684 99.8048 15.5684C101.826 15.5684 103.606 15.9785 105.144 16.7988C106.697 17.6045 107.905 18.7544 108.77 20.2485C109.649 21.728 110.088 23.4785 110.088 25.5H102.595C102.595 24.6943 102.493 23.9839 102.288 23.3687C102.083 22.7534 101.76 22.27 101.321 21.9185C100.896 21.5669 100.332 21.3911 99.629 21.3911C98.9991 21.3911 98.4645 21.5376 98.025 21.8306C97.6002 22.1235 97.2779 22.519 97.0582 23.0171C96.8385 23.5005 96.7286 24.0352 96.7286 24.6211C96.7286 25.1045 96.8385 25.5439 97.0582 25.9395C97.2779 26.3203 97.5782 26.6792 97.9591 27.0161C98.3546 27.353 98.8087 27.6753 99.3214 27.9829C99.8487 28.2905 100.413 28.5908 101.013 28.8838C102.463 29.4258 103.745 30.0337 104.858 30.7075C105.986 31.3667 106.931 32.1211 107.693 32.9707C108.455 33.8057 109.026 34.7578 109.407 35.8271C109.802 36.8965 110 38.105 110 39.4526C110 40.8882 109.766 42.1626 109.297 43.2759C108.843 44.3892 108.176 45.334 107.297 46.1104C106.419 46.8721 105.357 47.4507 104.111 47.8462C102.881 48.2417 101.489 48.4395 99.9366 48.4395C98.5157 48.4395 97.1168 48.2344 95.7398 47.8242C94.3775 47.3994 93.1397 46.7549 92.0265 45.8906C90.9278 45.0117 90.0489 43.8911 89.3897 42.5288C88.7306 41.1519 88.401 39.5186 88.401 37.6289H95.9596C95.9596 38.5664 96.0328 39.3574 96.1793 40.002C96.3258 40.6465 96.5528 41.1665 96.8605 41.562C97.1827 41.9429 97.5929 42.2212 98.0909 42.397C98.589 42.5581 99.2042 42.6387 99.9366 42.6387C100.61 42.6387 101.13 42.4995 101.497 42.2212C101.878 41.9282 102.141 41.5474 102.288 41.0786C102.434 40.5952 102.507 40.0679 102.507 39.4966ZM127.37 16.0078V48H119.833V16.0078H127.37ZM135.126 16.0078V21.9624H112.297V16.0078H135.126ZM150.288 16.0078H156.375L161.406 38.2661L166.438 16.0078H172.503L163.889 48H158.924L150.288 16.0078ZM146.531 16.0078H152.837L154.046 40.5293V48H146.531V16.0078ZM169.954 16.0078H176.282V48H168.745V40.5293L169.954 16.0078ZM188.093 16.0078V48H180.6V16.0078H188.093ZM201.376 48H195.509L195.553 42.0674H201.376C202.474 42.0674 203.368 41.8257 204.056 41.3423C204.759 40.8589 205.279 40.0605 205.616 38.9473C205.953 37.8193 206.122 36.3179 206.122 34.4429V29.543C206.122 28.1367 206.026 26.9502 205.836 25.9834C205.66 25.0166 205.382 24.2402 205.001 23.6543C204.62 23.0684 204.115 22.6436 203.485 22.3799C202.855 22.1016 202.108 21.9624 201.244 21.9624H195.399V16.0078H201.244C203.119 16.0078 204.818 16.3154 206.341 16.9307C207.879 17.5312 209.205 18.4248 210.318 19.6113C211.432 20.7832 212.289 22.2041 212.889 23.874C213.49 25.5439 213.79 27.4482 213.79 29.5869V34.4429C213.79 36.5669 213.49 38.4712 212.889 40.1558C212.289 41.8257 211.432 43.2466 210.318 44.4185C209.22 45.5903 207.909 46.4839 206.385 47.0991C204.877 47.6997 203.207 48 201.376 48ZM199.903 16.0078V48H192.389V16.0078H199.903ZM226.194 48H220.327L220.371 42.0674H226.194C227.293 42.0674 228.186 41.8257 228.875 41.3423C229.578 40.8589 230.098 40.0605 230.435 38.9473C230.772 37.8193 230.94 36.3179 230.94 34.4429V29.543C230.94 28.1367 230.845 26.9502 230.655 25.9834C230.479 25.0166 230.2 24.2402 229.82 23.6543C229.439 23.0684 228.933 22.6436 228.304 22.3799C227.674 22.1016 226.927 21.9624 226.062 21.9624H220.218V16.0078H226.062C227.937 16.0078 229.637 16.3154 231.16 16.9307C232.698 17.5312 234.024 18.4248 235.137 19.6113C236.25 20.7832 237.107 22.2041 237.708 23.874C238.308 25.5439 238.609 27.4482 238.609 29.5869V34.4429C238.609 36.5669 238.308 38.4712 237.708 40.1558C237.107 41.8257 236.25 43.2466 235.137 44.4185C234.038 45.5903 232.727 46.4839 231.204 47.0991C229.695 47.6997 228.025 48 226.194 48ZM224.722 16.0078V48H217.207V16.0078H224.722ZM260.351 42.0674V48H246.904V42.0674H260.351ZM249.541 16.0078V48H242.026V16.0078H249.541ZM282.05 42.0674V48H268.053V42.0674H282.05ZM270.668 16.0078V48H263.153V16.0078H270.668ZM280.226 28.708V34.4429H268.053V28.708H280.226ZM282.115 16.0078V21.9624H268.053V16.0078H282.115Z" fill="#FBEAD6"/>
</svg>
