<svg width="1100" height="210" viewBox="0 0 1100 210" fill="none" xmlns="http://www.w3.org/2000/svg">
<path d="M198.649 85.0763V78.8817C205.093 78.5742 210.12 77.2562 213.728 74.9277C217.337 72.5554 219.866 68.6673 221.316 63.2635C222.798 57.8598 223.539 50.4571 223.539 41.0554C223.539 34.114 223.088 28.3368 222.186 23.7238C221.316 19.0669 219.85 15.4205 217.788 12.7845C216.434 11.1151 214.84 9.79706 213.003 8.83053C211.167 7.86401 209.056 7.18305 206.672 6.78765C204.288 6.39225 201.614 6.19455 198.649 6.19455V0H276.942C289.025 0 299.383 0.395397 308.018 1.18619C316.653 1.97699 323.725 3.42677 329.234 5.53556C334.744 7.64434 338.803 10.6318 341.413 14.4979C344.023 18.364 345.328 23.3724 345.328 29.523C345.328 35.3661 344.281 40.1108 342.186 43.7573C340.092 47.3598 337.337 50.1276 333.922 52.0606C331.474 53.4225 328.864 54.455 326.093 55.1579C323.258 55.9487 320.213 56.4978 316.959 56.8054C313.705 57.069 310.338 57.2008 306.858 57.2008C301.51 57.2008 296.065 56.9591 290.523 56.4759C284.981 55.9926 279.633 55.6631 274.478 55.4874C275.154 61.1108 276.491 65.592 278.489 68.9309C280.519 72.2259 283.499 74.6422 287.43 76.1798C291.36 77.6736 296.548 78.5742 302.992 78.8817V85.0763H198.649ZM273.898 47.3158C276.765 47.0523 279.391 46.5251 281.775 45.7343C284.192 44.8995 286.27 43.6914 288.01 42.1098C289.717 40.5721 291.038 38.6171 291.973 36.2447C292.939 33.8724 293.423 30.9728 293.423 27.546C293.423 23.7678 292.971 20.6705 292.069 18.2542C291.199 15.7939 289.911 13.8169 288.203 12.3232C286.528 10.8734 284.466 9.84099 282.017 9.22593C279.568 8.56694 276.83 8.14957 273.801 7.97384V44.2845L273.898 47.3158Z" fill="#FBEAD6"/>
<path d="M326.443 85.0763V78.8817C327.377 78.8817 328.65 78.5083 330.261 77.7614C331.872 76.9706 333.644 75.7625 335.577 74.137C337.51 72.4675 339.524 70.3587 341.618 67.8106C343.712 65.2186 345.726 62.0554 347.659 58.3211L377.72 0H426.484L452.823 56.8713C454.66 60.8253 456.657 64.2081 458.816 67.0198C460.975 69.7876 463.117 72.0501 465.244 73.8075C467.338 75.5648 469.303 76.8608 471.14 77.6955C473.008 78.4863 474.571 78.8817 475.828 78.8817V85.0763H382.988V78.8817C384.953 78.8817 386.822 78.3985 388.594 77.4319C390.398 76.4654 391.864 75.0156 392.992 73.0826C394.119 71.1495 394.683 68.7552 394.683 65.8995C394.683 64.933 394.522 63.7248 394.2 62.275H355.682C355.392 63.3294 355.247 64.3399 355.247 65.3064C355.247 68.2499 355.811 70.7321 356.938 72.7531C358.098 74.774 359.564 76.3116 361.336 77.366C363.141 78.3765 365.025 78.8817 366.991 78.8817V85.0763H326.443ZM359.21 53.115H391.3C390.624 51.3577 389.834 49.3368 388.932 47.0522C388.03 44.7238 386.967 42.0878 385.742 39.1443C384.518 36.2008 383.133 32.9058 381.586 29.2594C380.072 25.6129 378.348 21.5491 376.415 17.068C374.224 21.5931 372.226 25.7008 370.422 29.3912C368.618 33.0816 367.007 36.4205 365.589 39.4079C364.204 42.3514 362.979 44.9435 361.916 47.1841C360.853 49.4246 359.951 51.4016 359.21 53.115Z" fill="#FBEAD6"/>
<path d="M469.411 85.0763V78.8817C475.855 78.5742 480.882 77.2562 484.49 74.9277C488.099 72.5554 490.628 68.6673 492.078 63.2635C493.56 57.8598 494.301 50.4571 494.301 41.0554C494.301 34.114 493.85 28.3368 492.948 23.7238C492.078 19.0669 490.612 15.4205 488.55 12.7845C487.197 11.1151 485.602 9.79706 483.765 8.83053C481.929 7.86401 479.818 7.18305 477.434 6.78765C475.05 6.39225 472.376 6.19455 469.411 6.19455V0H547.704C559.787 0 570.145 0.395397 578.78 1.18619C587.415 1.97699 594.487 3.42677 599.996 5.53556C605.506 7.64434 609.565 10.6318 612.175 14.4979C614.785 18.364 616.09 23.3724 616.09 29.523C616.09 35.3661 615.043 40.1108 612.948 43.7573C610.854 47.3598 608.099 50.1276 604.684 52.0606C602.236 53.4225 599.626 54.455 596.855 55.1579C594.02 55.9487 590.975 56.4978 587.721 56.8054C584.467 57.069 581.1 57.2008 577.62 57.2008C572.272 57.2008 566.827 56.9591 561.285 56.4759C555.743 55.9926 550.395 55.6631 545.24 55.4874C545.916 61.1108 547.253 65.592 549.251 68.9309C551.281 72.2259 554.261 74.6422 558.192 76.1798C562.122 77.6736 567.31 78.5742 573.754 78.8817V85.0763H469.411ZM544.66 47.3158C547.527 47.0523 550.153 46.5251 552.537 45.7343C554.954 44.8995 557.032 43.6914 558.772 42.1098C560.479 40.5721 561.8 38.6171 562.735 36.2447C563.701 33.8724 564.185 30.9728 564.185 27.546C564.185 23.7678 563.733 20.6705 562.831 18.2542C561.961 15.7939 560.673 13.8169 558.965 12.3232C557.29 10.8734 555.228 9.84099 552.779 9.22593C550.33 8.56694 547.592 8.14957 544.563 7.97384V44.2845L544.66 47.3158Z" fill="#FBEAD6"/>
<path d="M608.514 85.0763V78.8817C614.958 78.5742 619.984 77.2562 623.592 74.9277C627.201 72.5554 629.73 68.6673 631.18 63.2635C632.662 57.8598 633.403 50.4571 633.403 41.0554C633.403 34.114 632.952 28.3368 632.05 23.7238C631.18 19.0669 629.714 15.4205 627.652 12.7845C626.299 11.1151 624.704 9.79706 622.867 8.83053C621.031 7.86401 618.921 7.18305 616.536 6.78765C614.152 6.39225 611.478 6.19455 608.514 6.19455V0H743.497C744.334 5.53556 744.946 11.5544 745.333 18.0565C745.752 24.5586 745.961 30.4456 745.961 35.7175H740.887C738.728 31.3242 735.571 27.3263 731.414 23.7238C727.258 20.1213 722.538 17.046 717.254 14.4979C711.97 11.9058 706.444 9.92886 700.677 8.56694C694.91 7.20501 689.239 6.52405 683.665 6.52405V39.8692C685.47 39.1663 687.886 37.9801 690.915 36.3106C693.943 34.6412 697.246 32.6862 700.822 30.4456C704.366 28.205 707.379 26.228 709.86 24.5146C712.341 22.8012 713.968 21.5711 714.741 20.8242C715.289 24.1192 715.643 27.9634 715.804 32.3567C715.965 36.706 716.046 40.5282 716.046 43.8232C716.046 46.9864 715.933 50.6328 715.707 54.7625C715.514 58.8483 715.192 62.2531 714.741 64.9769C713.903 64.274 712.196 63.0439 709.618 61.2865C707.04 59.4853 704.044 57.5083 700.629 55.3556C697.375 53.3347 694.201 51.4456 691.108 49.6882C688.047 47.9309 685.566 46.7008 683.665 45.9979V78.5522C689.078 78.5522 695.039 77.8054 701.547 76.3116C708.055 74.774 714.467 72.6652 720.782 69.9853C724.809 68.228 728.563 66.2729 732.043 64.1202C735.522 61.9236 738.503 59.5732 740.984 57.069C743.464 54.5648 745.204 51.9947 746.203 49.3587H751.278C751.278 54.6307 751.068 60.5177 750.649 67.0198C750.263 73.5219 749.651 79.5407 748.813 85.0763H608.514Z" fill="#FBEAD6"/>
<path d="M871 88.8325C866.328 88.8325 862.349 88.7007 859.063 88.4371C852.522 87.9978 847.915 86.7238 845.241 84.615C843.855 83.6484 842.776 82.3305 842.003 80.661C841.197 79.0794 840.601 77.1903 840.214 74.9937C839.86 72.7531 839.57 70.161 839.345 67.2175C839.055 63.6589 838.62 60.6715 838.04 58.2552C837.46 55.7949 836.558 53.774 835.333 52.1924C832.981 49.2489 828.551 47.5135 822.043 46.9864C822.139 52.9173 822.413 57.9257 822.864 62.0114C823.315 66.0533 823.992 69.3263 824.894 71.8305C825.828 74.3347 827.005 76.1359 828.422 77.2342C829.872 78.3326 831.66 78.8817 833.787 78.8817V85.0763H746.843V78.8817C753.287 78.5742 758.313 77.2562 761.922 74.9277C765.53 72.5554 768.059 68.6673 769.509 63.2635C770.991 57.8598 771.732 50.4571 771.732 41.0554C771.732 34.114 771.281 28.3368 770.379 23.7238C769.509 19.0669 768.043 15.4205 765.981 12.7845C764.628 11.1151 763.033 9.79706 761.197 8.83053C759.36 7.86401 757.25 7.18305 754.866 6.78765C752.481 6.39225 749.807 6.19455 746.843 6.19455V0H825.136C829.324 0 833.287 0.0219665 837.025 0.0658995C840.762 0.109833 844.29 0.175732 847.609 0.263598C854.214 0.43933 860.013 0.790794 865.007 1.31799C870.001 1.80125 874.254 2.50418 877.766 3.42677C882.953 4.7887 886.723 6.85355 889.075 9.62133C891.459 12.3452 892.651 16.0575 892.651 20.7583C892.651 25.3713 891.266 29.1935 888.495 32.2249C885.724 35.2123 881.971 37.5627 877.234 39.2761C874.077 40.4184 870.517 41.3629 866.554 42.1098C862.655 42.8127 858.467 43.3179 853.988 43.6255C849.542 43.933 844.902 44.1087 840.069 44.1527H860.609C864.959 44.1527 868.696 44.3504 871.822 44.7458C877.943 45.5805 882.535 47.3817 885.595 50.1495C887.11 51.5115 888.366 53.1589 889.365 55.092C890.364 56.9811 891.185 59.1778 891.83 61.6819C892.474 64.1422 893.07 66.888 893.618 69.9194C894.262 73.434 895.229 75.8064 896.518 77.0365C897.806 78.2227 900.175 78.8158 903.622 78.8158V85.4717C899.981 86.0428 896.63 86.5261 893.57 86.9215C890.509 87.3608 887.641 87.7123 884.967 87.9759C882.325 88.2834 879.844 88.503 877.524 88.6348C875.237 88.7666 873.062 88.8325 871 88.8325ZM821.994 39.7374C826.151 39.4738 829.872 38.8587 833.158 37.8922C836.445 36.8818 839.038 35.2562 840.939 33.0157C842.84 30.7751 843.791 27.6558 843.791 23.6579C843.791 20.5387 843.259 17.9906 842.196 16.0136C841.165 14.0366 839.699 12.455 837.798 11.2688C835.865 10.1266 833.561 9.3138 830.887 8.83053C828.213 8.34727 825.249 8.03974 821.994 7.90794V39.7374Z" fill="#FBEAD6"/>
<path d="M0 206.244V200.049C6.44386 199.742 11.4701 198.424 15.0786 196.095C18.6872 193.723 21.2164 189.835 22.6663 184.431C24.1484 179.027 24.8894 171.625 24.8894 162.223C24.8894 155.281 24.4383 149.504 23.5362 144.891C22.6663 140.234 21.2003 136.588 19.1383 133.952C17.7851 132.283 16.1902 130.965 14.3537 129.998C12.5172 129.031 10.4068 128.35 8.02261 127.955C5.63838 127.56 2.96418 127.362 0 127.362V121.167H99.9926V127.362C95.5786 127.362 91.7928 127.845 88.6353 128.812C85.4778 129.734 82.9003 131.448 80.9027 133.952C78.9373 136.456 77.4874 139.993 76.5531 144.562C75.6187 149.087 75.1515 154.974 75.1515 162.223V199.72C81.4021 199.72 87.3788 198.446 93.0816 195.898C98.7844 193.305 103.843 189.945 108.257 185.815C112.671 181.729 116.183 177.16 118.793 172.108C121.435 167.055 122.901 162.135 123.191 157.346H128.265C128.265 159.763 128.217 163.123 128.12 167.429C128.023 171.69 127.878 176.347 127.685 181.4C127.46 186.54 127.186 191.263 126.864 195.568C126.574 199.873 126.219 203.432 125.8 206.244H0Z" fill="#FBEAD6"/>
<path d="M120.931 206.244V200.049C121.865 200.049 123.138 199.676 124.749 198.929C126.36 198.138 128.132 196.93 130.065 195.304C131.998 193.635 134.012 191.526 136.106 188.978C138.2 186.386 140.214 183.223 142.147 179.489L172.208 121.167H220.972L247.311 178.039C249.147 181.993 251.145 185.376 253.304 188.187C255.462 190.955 257.605 193.218 259.731 194.975C261.826 196.732 263.791 198.028 265.628 198.863C267.496 199.654 269.059 200.049 270.315 200.049V206.244H177.476V200.049C179.441 200.049 181.31 199.566 183.082 198.599C184.886 197.633 186.352 196.183 187.48 194.25C188.607 192.317 189.171 189.923 189.171 187.067C189.171 186.1 189.01 184.892 188.688 183.442H150.17C149.88 184.497 149.735 185.507 149.735 186.474C149.735 189.417 150.299 191.9 151.426 193.921C152.586 195.941 154.052 197.479 155.824 198.533C157.628 199.544 159.513 200.049 161.479 200.049V206.244H120.931ZM153.698 174.282H185.788C185.112 172.525 184.322 170.504 183.42 168.22C182.518 165.891 181.455 163.255 180.23 160.312C179.006 157.368 177.621 154.073 176.074 150.427C174.56 146.78 172.836 142.717 170.903 138.235C168.712 142.761 166.714 146.868 164.91 150.559C163.106 154.249 161.495 157.588 160.077 160.575C158.692 163.519 157.467 166.111 156.404 168.352C155.341 170.592 154.439 172.569 153.698 174.282Z" fill="#FBEAD6"/>
<path d="M263.319 206.244V200.049C269.763 199.742 274.789 198.424 278.398 196.095C282.007 193.723 284.536 189.835 285.986 184.431C287.468 179.027 288.209 171.625 288.209 162.223C288.209 155.281 287.758 149.504 286.856 144.891C285.986 140.234 284.52 136.588 282.458 133.952C281.104 132.283 279.51 130.965 277.673 129.998C275.837 129.031 273.726 128.35 271.342 127.955C268.958 127.56 266.284 127.362 263.319 127.362V121.167H347.702L390.28 168.352L390.376 162.223C390.376 154.974 389.909 149.087 388.975 144.562C388.04 139.993 386.574 136.456 384.577 133.952C382.611 131.448 380.05 129.734 376.892 128.812C373.735 127.845 369.949 127.362 365.535 127.362V121.167H418.697V127.362C415.765 127.362 413.155 127.56 410.868 127.955C406.325 128.746 402.99 130.745 400.864 133.952C399.704 135.709 398.802 137.84 398.157 140.344C397.481 142.892 396.997 145.99 396.707 149.636C396.417 153.239 396.272 157.434 396.272 162.223V206.244H346.687L328.998 185.485L295.168 145.946C294.427 150.163 294.057 155.589 294.057 162.223C294.057 171.712 294.798 179.159 296.28 184.563C297.762 189.967 300.307 193.833 303.916 196.161C307.557 198.446 312.55 199.742 318.898 200.049V206.244H263.319Z" fill="#FBEAD6"/>
<path d="M427.746 206.244V200.049C434.19 199.742 439.216 198.424 442.825 196.095C446.433 193.723 448.963 189.835 450.412 184.431C451.894 179.027 452.636 171.625 452.636 162.223V129.207C447.577 130.481 442.76 132.766 438.185 136.061C433.61 139.312 429.647 143.441 426.296 148.45C422.945 153.414 420.545 159.082 419.095 165.452H414.021C414.021 163.167 414.069 160.026 414.166 156.028C414.262 152.03 414.423 147.879 414.649 143.573C414.874 139.312 415.132 135.226 415.422 131.316C415.712 127.362 416.067 123.979 416.485 121.167H539.048C539.499 123.979 539.869 127.362 540.159 131.316C540.449 135.226 540.707 139.312 540.933 143.573C541.158 147.879 541.303 152.03 541.367 156.028C541.464 160.026 541.512 163.167 541.512 165.452H536.438C534.891 159.521 532.362 154.073 528.85 149.109C525.371 144.1 521.359 139.861 516.816 136.39C512.273 132.876 507.634 130.481 502.898 129.207V164.332C502.994 173.294 503.8 180.323 505.314 185.419C506.828 190.516 509.374 194.162 512.95 196.359C516.559 198.512 521.472 199.742 527.69 200.049V206.244H427.746Z" fill="#FBEAD6"/>
<path d="M537.948 206.244V200.049C544.392 199.742 549.418 198.424 553.026 196.095C556.635 193.723 559.164 189.835 560.614 184.431C562.096 179.027 562.837 171.625 562.837 162.223C562.837 155.281 562.386 149.504 561.484 144.891C560.614 140.234 559.148 136.588 557.086 133.952C555.733 132.283 554.138 130.965 552.301 129.998C550.465 129.031 548.355 128.35 545.97 127.955C543.586 127.56 540.912 127.362 537.948 127.362V121.167H672.931C673.768 126.703 674.38 132.722 674.767 139.224C675.186 145.726 675.395 151.613 675.395 156.885H670.321C668.162 152.492 665.005 148.494 660.848 144.891C656.692 141.289 651.972 138.213 646.688 135.665C641.404 133.073 635.878 131.096 630.111 129.734C624.344 128.372 618.673 127.691 613.099 127.691V161.037C614.904 160.334 617.32 159.148 620.349 157.478C623.377 155.809 626.68 153.854 630.256 151.613C633.8 149.372 636.813 147.395 639.294 145.682C641.774 143.969 643.401 142.739 644.175 141.992C644.722 145.287 645.077 149.131 645.238 153.524C645.399 157.873 645.48 161.696 645.48 164.991C645.48 168.154 645.367 171.8 645.141 175.93C644.948 180.016 644.626 183.421 644.175 186.144C643.337 185.441 641.629 184.211 639.052 182.454C636.474 180.653 633.478 178.676 630.063 176.523C626.809 174.502 623.635 172.613 620.542 170.856C617.481 169.098 615 167.868 613.099 167.165V199.72C618.512 199.72 624.473 198.973 630.981 197.479C637.489 195.941 643.901 193.833 650.216 191.153C654.243 189.395 657.997 187.44 661.477 185.288C664.956 183.091 667.937 180.741 670.417 178.236C672.898 175.732 674.638 173.162 675.637 170.526H680.711C680.711 175.798 680.502 181.685 680.083 188.187C679.697 194.689 679.084 200.708 678.247 206.244H537.948Z" fill="#FBEAD6"/>
<path d="M800.434 210C795.762 210 791.783 209.868 788.497 209.605C781.956 209.165 777.349 207.891 774.675 205.782C773.289 204.816 772.21 203.498 771.437 201.828C770.631 200.247 770.035 198.358 769.648 196.161C769.294 193.921 769.004 191.328 768.778 188.385C768.488 184.826 768.054 181.839 767.474 179.423C766.894 176.962 765.991 174.941 764.767 173.36C762.415 170.416 757.985 168.681 751.477 168.154C751.573 174.085 751.847 179.093 752.298 183.179C752.749 187.221 753.426 190.494 754.328 192.998C755.262 195.502 756.438 197.303 757.856 198.402C759.306 199.5 761.094 200.049 763.221 200.049V206.244H676.277V200.049C682.721 199.742 687.747 198.424 691.355 196.095C694.964 193.723 697.493 189.835 698.943 184.431C700.425 179.027 701.166 171.625 701.166 162.223C701.166 155.281 700.715 149.504 699.813 144.891C698.943 140.234 697.477 136.588 695.415 133.952C694.062 132.283 692.467 130.965 690.63 129.998C688.794 129.031 686.684 128.35 684.299 127.955C681.915 127.56 679.241 127.362 676.277 127.362V121.167H754.57C758.758 121.167 762.721 121.189 766.459 121.233C770.196 121.277 773.724 121.343 777.043 121.431C783.648 121.607 789.447 121.958 794.441 122.485C799.435 122.969 803.688 123.672 807.2 124.594C812.387 125.956 816.157 128.021 818.509 130.789C820.893 133.513 822.085 137.225 822.085 141.926C822.085 146.539 820.7 150.361 817.929 153.392C815.158 156.38 811.405 158.73 806.668 160.444C803.511 161.586 799.951 162.53 795.988 163.277C792.089 163.98 787.901 164.485 783.422 164.793C778.976 165.1 774.336 165.276 769.503 165.32H790.043C794.393 165.32 798.13 165.518 801.255 165.913C807.377 166.748 811.968 168.549 815.029 171.317C816.544 172.679 817.8 174.326 818.799 176.259C819.798 178.149 820.619 180.345 821.264 182.849C821.908 185.31 822.504 188.055 823.052 191.087C823.696 194.601 824.663 196.974 825.952 198.204C827.24 199.39 829.608 199.983 833.056 199.983V206.639C829.415 207.21 826.064 207.694 823.004 208.089C819.943 208.528 817.075 208.88 814.401 209.143C811.759 209.451 809.278 209.671 806.958 209.802C804.671 209.934 802.496 210 800.434 210ZM751.428 160.905C755.585 160.641 759.306 160.026 762.592 159.06C765.879 158.049 768.472 156.424 770.373 154.183C772.274 151.943 773.225 148.823 773.225 144.825C773.225 141.706 772.693 139.158 771.63 137.181C770.599 135.204 769.133 133.622 767.232 132.436C765.299 131.294 762.995 130.481 760.321 129.998C757.647 129.515 754.682 129.207 751.428 129.075V160.905Z" fill="#FBEAD6"/>
<path d="M827.558 206.244V200.049C834.002 199.742 839.028 198.424 842.637 196.095C846.245 193.723 848.774 189.835 850.224 184.431C851.706 179.027 852.447 171.625 852.447 162.223C852.447 155.281 851.996 149.504 851.094 144.891C850.224 140.234 848.758 136.588 846.696 133.952C845.343 132.283 843.748 130.965 841.912 129.998C840.075 129.031 837.965 128.35 835.581 127.955C833.196 127.56 830.522 127.362 827.558 127.362V121.167H911.94L954.518 168.352L954.615 162.223C954.615 154.974 954.148 149.087 953.213 144.562C952.279 139.993 950.813 136.456 948.815 133.952C946.85 131.448 944.289 129.734 941.131 128.812C937.974 127.845 934.188 127.362 929.774 127.362V121.167H982.936V127.362C980.004 127.362 977.394 127.56 975.106 127.955C970.563 128.746 967.229 130.745 965.102 133.952C963.942 135.709 963.04 137.84 962.396 140.344C961.719 142.892 961.236 145.99 960.946 149.636C960.656 153.239 960.511 157.434 960.511 162.223V206.244H910.925L893.237 185.485L859.407 145.946C858.666 150.163 858.295 155.589 858.295 162.223C858.295 171.712 859.036 179.159 860.518 184.563C862 189.967 864.546 193.833 868.154 196.161C871.795 198.446 876.789 199.742 883.136 200.049V206.244H827.558Z" fill="#FBEAD6"/>
<path d="M982.319 210C981.803 208.594 981.32 206.463 980.869 203.608C980.418 200.708 980.015 197.611 979.661 194.316C979.274 191.065 978.984 187.99 978.791 185.09C978.63 182.146 978.549 179.906 978.549 178.368H983.479C985.058 182.718 987.361 186.386 990.39 189.373C993.451 192.361 996.947 194.755 1000.88 196.556C1004.74 198.314 1008.84 199.588 1013.15 200.379C1017.5 201.126 1021.87 201.499 1026.25 201.499C1032.47 201.499 1037.32 201.038 1040.8 200.115C1044.31 199.149 1046.79 197.874 1048.24 196.293C1049.69 194.667 1050.41 192.888 1050.41 190.955C1050.41 188.802 1049.74 187.067 1048.38 185.749C1047.03 184.387 1045.2 183.311 1042.88 182.52C1040.52 181.729 1037.78 181.114 1034.66 180.675C1031.57 180.235 1028.28 179.84 1024.8 179.489C1021.29 179.137 1017.7 178.764 1014.02 178.368C1010.35 177.929 1006.77 177.292 1003.29 176.457C999.782 175.666 996.463 174.612 993.338 173.294C990.245 171.932 987.539 170.175 985.219 168.022C982.867 165.869 981.014 163.233 979.661 160.114C978.308 156.951 977.631 153.151 977.631 148.713C977.631 142.739 979.178 137.708 982.271 133.622C985.364 129.537 989.488 126.33 994.643 124.001C1000.02 121.541 1006 119.849 1012.57 118.927C1019.18 117.96 1026.02 117.477 1033.11 117.477C1036.91 117.477 1040.64 117.631 1044.28 117.938C1047.92 118.246 1051.45 118.575 1054.86 118.927C1058.24 119.278 1061.48 119.608 1064.57 119.915C1067.7 120.223 1070.65 120.377 1073.42 120.377C1075.84 120.377 1077.85 120.289 1079.46 120.113C1081.1 119.937 1082.7 119.652 1084.24 119.256C1085.82 118.817 1087.69 118.224 1089.85 117.477C1090.37 118.883 1090.85 120.882 1091.3 123.474C1091.75 126.066 1092.14 128.812 1092.46 131.711C1092.82 134.611 1093.07 137.379 1093.23 140.015C1093.43 142.607 1093.52 144.672 1093.52 146.209H1088.06C1087.39 143.617 1085.76 141.069 1083.18 138.565C1080.6 136.017 1077.35 133.732 1073.42 131.711C1069.52 129.69 1065.04 128.065 1059.98 126.835C1054.96 125.561 1049.61 124.924 1043.94 124.924C1041.81 124.924 1039.93 125.187 1038.28 125.715C1036.67 126.198 1035.3 126.879 1034.18 127.757C1031.89 129.471 1030.74 131.624 1030.74 134.216C1030.74 136.808 1031.39 138.916 1032.68 140.542C1033.97 142.167 1035.72 143.485 1037.95 144.496C1040.17 145.462 1042.76 146.231 1045.73 146.802C1048.69 147.33 1051.83 147.791 1055.15 148.186C1058.5 148.582 1061.92 148.999 1065.4 149.438C1068.91 149.878 1072.32 150.493 1075.64 151.284C1080.15 152.382 1084.24 154.007 1087.92 156.16C1091.59 158.313 1094.52 161.322 1096.71 165.188C1098.9 169.054 1100 174.107 1100 180.345C1100 186.715 1098.37 191.9 1095.12 195.898C1091.86 199.851 1087.6 202.839 1082.31 204.86C1076.71 207.013 1070.63 208.396 1064.09 209.011C1057.58 209.67 1050.82 210 1043.79 210C1038.35 210 1033.24 209.758 1028.47 209.275C1023.74 208.792 1018.97 208.309 1014.17 207.825C1009.4 207.342 1004.21 207.1 998.606 207.1C996.318 207.1 994.353 207.166 992.71 207.298C991.099 207.474 989.504 207.759 987.925 208.155C986.346 208.594 984.478 209.209 982.319 210Z" fill="#FBEAD6"/>
</svg>
